<svg width="67" height="50" viewBox="0 0 67 50" fill="none" xmlns="http://www.w3.org/2000/svg">
<path d="M64.4205 39.3101L49.6161 24.4837C52.3939 18.1696 51.2053 10.5136 46.0482 5.34891C39.3292 -1.38001 28.4533 -1.38092 21.7335 5.34891C15.0302 12.062 15.0302 22.9851 21.7335 29.6982C27.0603 35.0328 34.8667 36.0485 41.0987 33.1639L55.8275 47.9144C58.2022 50.2925 62.0463 50.2928 64.421 47.9139C66.7892 45.5417 66.7889 41.6821 64.4205 39.3101ZM24.4766 26.9523C19.2851 21.7533 19.2851 13.294 24.4766 8.09483C29.6795 2.88418 38.1012 2.88327 43.3051 8.09483C48.4965 13.294 48.4965 21.7533 43.3051 26.9523C38.102 32.1631 29.6802 32.1639 24.4766 26.9523ZM61.6775 45.1684C60.819 46.0284 59.4293 46.0287 58.5705 45.1685L44.4986 31.0758C45.6553 30.1642 46.6862 29.1174 47.5813 27.9391L61.6773 42.0558C62.5341 42.914 62.5343 44.3102 61.6775 45.1684Z" fill="#01E45C"/>
<path d="M1.93946 23.5707H10.2096C11.2807 23.5707 12.149 22.7013 12.149 21.6289C12.149 20.5564 11.2807 19.687 10.2096 19.687H1.93946C0.86836 19.687 0 20.5564 0 21.6289C0 22.7013 0.86836 23.5707 1.93946 23.5707Z" fill="#2B2B2B"/>
<path d="M1.93946 31.8559H13.3109C14.382 31.8559 15.2503 30.9864 15.2503 29.914C15.2503 28.8416 14.382 27.9722 13.3109 27.9722H1.93946C0.86836 27.9722 0 28.8416 0 29.914C0 30.9864 0.86836 31.8559 1.93946 31.8559Z" fill="#2B2B2B"/>
<path d="M1.93946 40.1412H21.5811C22.6522 40.1412 23.5206 39.2717 23.5206 38.1993C23.5206 37.1269 22.6522 36.2574 21.5811 36.2574H1.93946C0.86836 36.2574 0 37.1269 0 38.1993C0 39.2717 0.86836 40.1412 1.93946 40.1412Z" fill="#2B2B2B"/>
<path d="M44.3242 44.5427H1.93946C0.86836 44.5427 0 45.4122 0 46.4846C0 47.557 0.86836 48.4264 1.93946 48.4264H44.3242C45.3953 48.4264 46.2637 47.557 46.2637 46.4846C46.2637 45.4122 45.3953 44.5427 44.3242 44.5427Z" fill="#2B2B2B"/>
</svg>
