<svg width="54" height="50" viewBox="0 0 54 50" fill="none" xmlns="http://www.w3.org/2000/svg">
<g clip-path="url(#clip0_153_2931)">
<path d="M4.40989 1.9029L4.40989 4.25996C2.19517 5.04547 0.60409 7.16061 0.60409 9.64135C0.60409 12.1221 2.19517 14.2372 4.40989 15.0228L4.40989 47.8262C4.40989 48.8771 5.26188 49.7291 6.31279 49.7291C7.36369 49.7291 8.21568 48.8771 8.21568 47.8262L8.21569 15.0228C10.4304 14.2372 12.0215 12.1221 12.0215 9.64135C12.0215 7.16061 10.4304 5.04547 8.21569 4.25996L8.21569 1.9029C8.21569 0.851991 7.3637 -2.03598e-07 6.31279 -2.49535e-07C5.26188 -2.95472e-07 4.40989 0.851991 4.40989 1.9029ZM8.21569 9.64135C8.21569 10.6906 7.36205 11.5443 6.31279 11.5443C5.26353 11.5443 4.40989 10.6906 4.40989 9.64135C4.40989 8.5921 5.26353 7.73846 6.31279 7.73846C7.36205 7.73846 8.21569 8.5921 8.21569 9.64135Z" fill="#2B2B2B"/>
<path d="M24.7898 47.8262L24.7898 45.4692C22.5751 44.6837 20.984 42.5685 20.984 40.0878C20.984 37.607 22.5751 35.4919 24.7898 34.7064L24.7898 1.90293C24.7898 0.852024 25.6418 3.0813e-05 26.6927 3.07671e-05C27.7436 3.07212e-05 28.5956 0.852024 28.5956 1.90293L28.5956 34.7064C30.8103 35.4919 32.4014 37.607 32.4014 40.0878C32.4014 42.5685 30.8103 44.6837 28.5956 45.4692L28.5956 47.8262C28.5956 48.8771 27.7436 49.7291 26.6927 49.7291C25.6418 49.7291 24.7898 48.8771 24.7898 47.8262ZM28.5956 40.0878C28.5956 39.0385 27.7419 38.1849 26.6927 38.1849C25.6434 38.1849 24.7898 39.0385 24.7898 40.0878C24.7898 41.137 25.6434 41.9907 26.6927 41.9907C27.7419 41.9907 28.5956 41.137 28.5956 40.0878Z" fill="#01E45C"/>
<path d="M45.1706 1.9029L45.1706 4.25996C42.9559 5.04547 41.3648 7.16061 41.3648 9.64135C41.3648 12.1221 42.9559 14.2372 45.1706 15.0228L45.1706 47.8262C45.1706 48.8771 46.0226 49.7291 47.0735 49.7291C48.1244 49.7291 48.9764 48.8771 48.9764 47.8262L48.9764 15.0228C51.1911 14.2372 52.7822 12.1221 52.7822 9.64135C52.7822 7.16061 51.1911 5.04547 48.9764 4.25996L48.9764 1.9029C48.9764 0.851991 48.1244 -2.03598e-07 47.0735 -2.49535e-07C46.0226 -2.95472e-07 45.1706 0.851991 45.1706 1.9029ZM48.9764 9.64135C48.9764 10.6906 48.1228 11.5443 47.0735 11.5443C46.0243 11.5443 45.1706 10.6906 45.1706 9.64135C45.1706 8.5921 46.0243 7.73846 47.0735 7.73846C48.1228 7.73846 48.9764 8.5921 48.9764 9.64135Z" fill="#2B2B2B"/>
</g>
<defs>
<clipPath id="clip0_153_2931">
<rect width="53.2609" height="50" fill="white"/>
</clipPath>
</defs>
</svg>
