<svg width="12" height="12" viewBox="0 0 12 12" fill="none" xmlns="http://www.w3.org/2000/svg">
<path d="M11.4905 1.0828H9.68155V0.522303C9.68155 0.242056 9.45225 0.0127563 9.172 0.0127563C8.89175 0.0127563 8.66245 0.242056 8.66245 0.522303V1.08282H3.31213V0.522303C3.31213 0.242056 3.08283 0.0127563 2.80259 0.0127563C2.52234 0.0127563 2.29299 0.242032 2.29299 0.522303V1.08282H0.509546C0.229299 1.0828 0 1.3121 0 1.59237V11.4777C0 11.758 0.229299 11.9873 0.509546 11.9873H11.465C11.7452 11.9873 11.9745 11.758 12 11.4777V1.59237C12 1.3121 11.7707 1.0828 11.4905 1.0828ZM10.9809 10.9936H0.993631V2.10191H2.29299V2.48408C2.29299 2.76432 2.52229 2.99362 2.80254 2.99362C3.05732 2.99362 3.28662 2.78981 3.31209 2.50954V2.10191H8.6624V2.48408C8.6624 2.76432 8.8917 2.99362 9.17195 2.99362C9.4522 2.99362 9.6815 2.78981 9.6815 2.50954V2.10191H10.9809V10.9936H10.9809Z" fill="#2B2B2B"/>
</svg>
