<svg width="17" height="17" viewBox="0 0 17 17" fill="none" xmlns="http://www.w3.org/2000/svg">
<path d="M8.5009 0C3.81404 0 0.000976562 3.81298 0.000976562 8.49976C0.000976562 13.1869 3.81404 17 8.5009 17C13.1877 17 17.0007 13.1868 17.0007 8.49976C17.0007 3.81298 13.1877 0 8.5009 0ZM8.5009 15.7815C4.4859 15.7815 1.21944 12.5149 1.21944 8.49976C1.21944 4.48484 4.4859 1.21846 8.5009 1.21846C12.5158 1.21846 15.7822 4.48484 15.7822 8.49976C15.7822 12.5149 12.5158 15.7815 8.5009 15.7815Z" fill="#2B2B2B"/>
<path d="M12.8711 8.35749H8.87666V3.99117C8.87666 3.65471 8.60397 3.38194 8.26743 3.38194C7.93098 3.38194 7.6582 3.65471 7.6582 3.99117V8.96672C7.6582 9.30318 7.93098 9.57595 8.26743 9.57595H12.8711C13.2076 9.57595 13.4803 9.30318 13.4803 8.96672C13.4803 8.63026 13.2076 8.35749 12.8711 8.35749Z" fill="#2B2B2B"/>
</svg>
