<svg width="28" height="22" viewBox="0 0 28 22" fill="none" xmlns="http://www.w3.org/2000/svg">
<path d="M27.7073 7.29291L20.7072 0.292783C20.3166 -0.097692 19.6834 -0.0975747 19.2929 0.293017C19.1055 0.48052 19.0002 0.734704 19.0001 0.999845V3.99989H12C11.4477 3.99989 10.9999 4.44762 10.9999 4.99993C10.9999 5.55224 11.4477 5.99996 12 5.99996H20.0002C20.5525 5.99996 21.0002 5.55224 21.0002 4.99993V3.41383L25.5863 7.99992L21.0002 12.586V11C21.0002 10.4477 20.5525 9.99993 20.0002 9.99993H8.99993V6.99988C8.99981 6.44757 8.55198 5.99996 7.99972 6.00008C7.73464 6.00014 7.4804 6.10543 7.29289 6.29288L0.292813 13.293C-0.0976042 13.6835 -0.0976042 14.3165 0.292813 14.707L7.29295 21.7072C7.48045 21.8947 7.73476 22.0001 7.99995 22.0002C8.13138 22.0006 8.26164 21.9748 8.38293 21.9242C8.75653 21.7693 9.00005 21.4046 8.99993 21.0001V18.0001H16.0001C16.5524 18.0001 17.0001 17.5524 17.0001 17.0001C17.0001 16.4478 16.5524 16 16.0001 16H7.99995C7.44764 16 6.99992 16.4478 6.99992 17.0001V18.5861L2.41383 14L6.99992 9.41393V11C6.99992 11.5523 7.44764 12 7.99995 12H19.0001V15C19.0002 15.5524 19.4481 16 20.0003 15.9999C20.2654 15.9998 20.5197 15.8945 20.7072 15.7071L27.7073 8.70692C28.0977 8.31639 28.0977 7.68339 27.7073 7.29291Z" fill="#2B2B2B"/>
</svg>
