<svg width="12" height="10" viewBox="0 0 12 10" fill="none" xmlns="http://www.w3.org/2000/svg">
<path d="M11.5312 0.78125C11.3509 0.78125 2.17557 0.78125 0.46875 0.78125C0.209839 0.78125 0 0.991089 0 1.25V8.75C0 9.00891 0.209839 9.21875 0.46875 9.21875H11.5312C11.7902 9.21875 12 9.00891 12 8.75V1.25C12 0.991089 11.7902 0.78125 11.5312 0.78125ZM2.88281 1.71875H4.75781V3.53049L4.12042 2.9993C3.94666 2.85446 3.69406 2.85437 3.5202 2.9993L2.88281 3.53049V1.71875ZM11.0625 8.28125H0.9375V1.71875H1.94531V4.53125C1.94531 4.92758 2.40912 5.14557 2.71417 4.89133L3.82031 3.96957L4.92645 4.89133C5.22867 5.14319 5.69531 4.93152 5.69531 4.53125V1.71875H11.0625V8.28125ZM10.0547 6.40625C10.0547 6.66516 9.84485 6.875 9.58594 6.875H2.41406C2.15515 6.875 1.94531 6.66516 1.94531 6.40625C1.94531 6.14734 2.15515 5.9375 2.41406 5.9375H9.58594C9.84485 5.9375 10.0547 6.14734 10.0547 6.40625ZM6.58594 4.53125C6.58594 4.27234 6.79578 4.0625 7.05469 4.0625H9.58594C9.84485 4.0625 10.0547 4.27234 10.0547 4.53125C10.0547 4.79016 9.84485 5 9.58594 5H7.05469C6.79578 5 6.58594 4.79016 6.58594 4.53125Z" fill="#2B2B2B"/>
</svg>
