<svg width="12" height="12" viewBox="0 0 12 12" fill="none" xmlns="http://www.w3.org/2000/svg">
<g clip-path="url(#clip0_185_111)">
<path d="M4.10556 4.32921L4.66144 5.44096L5.2205 4.3229L5 3.8819C4.79362 3.46564 4.47475 3.11553 4.07952 2.87127C3.6843 2.62702 3.22855 2.49838 2.76394 2.49996H0V3.49996H2.76394C3.04271 3.49902 3.31617 3.57621 3.55331 3.72278C3.79044 3.86935 3.98176 4.07944 4.10556 4.32921Z" fill="#8C8C8C"/>
<path d="M10.3534 7.1464L9.64623 7.85352L10.2927 8.49996H8.23586C7.95709 8.5009 7.68363 8.42371 7.44649 8.27714C7.20936 8.13057 7.01804 7.92048 6.89423 7.67071L6.33836 6.55896L5.7793 7.67702L5.9998 8.11802C6.20617 8.53428 6.52505 8.88439 6.92027 9.12864C7.3155 9.3729 7.77125 9.50153 8.23586 9.49996H10.2927L9.64623 10.1464L10.3534 10.8535L11.8534 9.35352C11.8998 9.30709 11.9366 9.25197 11.9618 9.1913C11.9869 9.13064 11.9998 9.06562 11.9998 8.99996C11.9998 8.93429 11.9869 8.86927 11.9618 8.80861C11.9366 8.74794 11.8998 8.69282 11.8534 8.6464L10.3534 7.1464Z" fill="#8C8C8C"/>
<path d="M11.8536 2.64649L10.3536 1.14649L9.64644 1.85362L10.2929 2.50005H8.23606C7.77146 2.49848 7.3157 2.62711 6.92048 2.87137C6.52525 3.11562 6.20638 3.46573 6 3.88199L4.10556 7.6708C3.98176 7.92058 3.79044 8.13067 3.55331 8.27724C3.31617 8.42381 3.04271 8.501 2.76394 8.50005H0V9.50005H2.76394C3.22855 9.50163 3.6843 9.373 4.07952 9.12874C4.47475 8.88448 4.79363 8.53438 5 8.11812L6.89444 4.3293C7.01824 4.07953 7.20956 3.86944 7.4467 3.72287C7.68383 3.5763 7.95729 3.49911 8.23606 3.50005H10.2929L9.64644 4.14649L10.3536 4.85362L11.8536 3.35362C11.9 3.30719 11.9368 3.25207 11.962 3.1914C11.9871 3.13074 12 3.06572 12 3.00005C12 2.93439 11.9871 2.86937 11.962 2.80871C11.9368 2.74804 11.9 2.69292 11.8536 2.64649Z" fill="#8C8C8C"/>
</g>
<defs>
<clipPath id="clip0_185_111">
<rect width="12" height="12" fill="white"/>
</clipPath>
</defs>
</svg>
