<svg width="12" height="12" viewBox="0 0 12 12" fill="none" xmlns="http://www.w3.org/2000/svg">
<path d="M11.5305 2.66654H9.2865V1.35195C9.2865 1.09264 9.07631 0.882446 8.817 0.882446H3.183C2.9237 0.882446 2.7135 1.09264 2.7135 1.35195V2.66654H0.4695C0.210195 2.66654 0 2.87674 0 3.13604V10.648C0 10.9073 0.210195 11.1175 0.4695 11.1175H11.5305C11.7898 11.1175 12 10.9073 12 10.648C12 6.49761 12 3.34727 12 3.13604C12 2.87674 11.7898 2.66654 11.5305 2.66654ZM3.6525 1.82145H8.3475V2.66654H3.6525V1.82145ZM0.939 3.60554H11.061V4.67765L6 6.3962L0.939 4.67765V3.60554ZM0.939 10.1785V5.6693L5.84903 7.33661C5.94692 7.36985 6.05305 7.36985 6.15095 7.33661L11.061 5.6693V10.1785H0.939Z" fill="#2B2B2B"/>
</svg>
